<svg width="72" height="72" viewBox="0 0 72 72" fill="none" xmlns="http://www.w3.org/2000/svg">
<g clip-path="url(#clip0_2_23)">
<rect width="72" height="72" fill="#042030"/>
<path d="M45.7238 29.2822C46.6671 30.2031 49.2277 31.6182 53.4279 33.4824C57.6281 35.3467 60.5031 37.2334 62.0304 39.165C62.8839 40.2207 63.423 41.501 63.6476 43.0059C63.8497 44.3535 63.7824 45.6562 63.4454 46.8916C62.9513 49.25 61.671 51.249 59.6046 52.8887C57.8976 54.2139 55.9884 55.1123 53.8995 55.5391C50.3283 56.2354 47.1163 55.9209 44.2189 54.5957C43.2081 54.0791 42.2872 53.4951 41.4562 52.7988C41.2091 52.5742 40.9396 52.3271 40.6701 52.0576L40.5128 51.9004L40.3781 51.7656L40.1759 51.5635C38.963 50.2158 37.9298 49.3398 37.0988 48.9355C36.8517 48.8232 36.6046 48.7334 36.4025 48.7109H36.2228H36.1779L36.1329 48.7334L37.0763 47.9922C36.7394 47.6553 36.6046 47.2959 36.6495 46.9141C36.6945 46.4424 36.9191 46.083 37.3234 45.8584C37.7277 45.6562 38.1095 45.6787 38.4689 45.9482C38.4015 45.4316 38.087 45.0947 37.5255 44.9375C37.0763 44.8252 36.6046 44.8252 36.1105 44.96V44.9375L36.1329 44.8926L36.1554 44.8477V44.8252L36.4923 44.6455L36.8292 44.4658C37.0763 44.3535 37.3234 44.2637 37.5255 44.2188C37.9747 44.1289 38.4913 44.1963 39.0529 44.3984C39.6368 44.6006 40.131 44.915 40.5128 45.3193L41.591 44.4658C41.5236 44.5332 41.4562 44.668 41.4337 44.8477C41.4113 45.0947 41.4337 45.3643 41.5236 45.6562C41.7257 46.4873 42.3322 47.4531 43.298 48.5537C43.4103 48.666 43.5226 48.8008 43.6574 48.9355C43.837 49.1152 44.0392 49.2949 44.2413 49.4746C44.8029 49.9463 45.4318 50.3281 46.1281 50.665C48.1271 51.5859 50.4181 51.7881 52.9562 51.2715C54.4161 51.1592 55.7413 50.5527 56.9318 49.4971C58.0773 48.4639 58.8185 47.251 59.1554 45.8584C59.5148 44.376 59.3351 43.0283 58.5939 41.793C57.7628 40.4004 55.2697 38.8281 51.1144 37.0762C46.9591 35.3242 44.1515 33.752 42.6466 32.3818C41.7257 31.5059 41.007 30.4502 40.4904 29.2148C39.9738 27.9346 39.7941 26.6543 39.9288 25.374C40.131 22.9258 41.3439 20.9492 43.5451 19.4219C46.757 17.5576 49.9913 16.9512 53.2482 17.5576C54.2589 17.7598 55.2921 18.0742 56.3478 18.501C56.5275 18.5684 56.7072 18.6582 56.9093 18.748L57.1339 18.8604L57.3585 18.9502C57.6505 19.1074 57.8527 19.1748 57.9425 19.1973C59.5822 20.1182 60.9523 20.7021 62.0529 20.9941C62.4347 21.084 62.7716 21.1289 63.0187 21.1289C63.131 21.1289 63.1984 21.1289 63.2658 21.1064C63.3331 21.1064 63.3556 21.1064 63.3781 21.084L61.8283 22.5439C62.5919 23.0156 62.8615 23.8018 62.6593 24.9473C62.4572 26.0254 62.0079 26.7891 61.2892 27.2158C61.1095 27.3281 60.8849 27.418 60.5929 27.5078L60.2335 27.6201L59.8742 27.71L59.8517 27.6875H59.8068L59.7618 27.665L59.7394 27.6426C60.2111 27.3955 60.548 27.0811 60.7951 26.6768C61.087 26.1826 61.087 25.7334 60.7951 25.3066C60.7277 25.7559 60.4581 26.0479 60.0089 26.1602C59.5822 26.2725 59.1779 26.1602 58.8185 25.8457C58.7511 25.7783 58.6837 25.7109 58.6163 25.6211L57.3585 26.8115C57.4259 26.7441 57.4933 26.5645 57.5158 26.3174C57.5382 26.0254 57.5382 25.6885 57.4708 25.3516C57.2911 24.4307 56.797 23.667 55.966 23.0605L55.8986 23.0381L55.8087 22.9932L55.5392 22.8584C55.2921 22.7461 55.0451 22.6562 54.798 22.5439C54.0118 22.2295 53.2482 22.0049 52.462 21.8701C50.0587 21.4434 47.9474 21.8027 46.0831 22.9482C44.9826 23.6445 44.3761 24.6104 44.2638 25.8008C44.1515 27.0361 44.6232 28.2041 45.7238 29.2822Z" fill="black"/>
<path d="M45.7238 29.2822L45.024 29.9966L45.0252 29.9978L45.7238 29.2822ZM62.0304 39.165L61.2459 39.7853L61.2528 39.7938L62.0304 39.165ZM63.6476 43.0059L62.6585 43.1535L62.6587 43.1542L63.6476 43.0059ZM63.4454 46.8916L62.4807 46.6285L62.4728 46.6573L62.4667 46.6865L63.4454 46.8916ZM59.6046 52.8887L60.2179 53.6786L60.2262 53.672L59.6046 52.8887ZM53.8995 55.5391L54.0909 56.5206L54.0997 56.5188L53.8995 55.5391ZM44.2189 54.5957L43.7638 55.4861L43.7832 55.496L43.803 55.5051L44.2189 54.5957ZM41.4562 52.7988L40.7835 53.5388L40.7985 53.5524L40.814 53.5653L41.4562 52.7988ZM40.1759 51.5635L39.4326 52.2324L39.4502 52.252L39.4688 52.2706L40.1759 51.5635ZM37.0988 48.9355L37.5362 48.0363L37.5245 48.0306L37.5126 48.0252L37.0988 48.9355ZM36.4025 48.7109L36.5129 47.7171L36.4579 47.7109H36.4025V48.7109ZM36.1779 48.7109V47.7109H35.9418L35.7307 47.8165L36.1779 48.7109ZM36.1329 48.7334L35.5151 47.9471L36.5802 49.6278L36.1329 48.7334ZM37.0763 47.9922L37.6941 48.7785L38.5804 48.0821L37.7834 47.2851L37.0763 47.9922ZM36.6495 46.9141L37.6427 47.0309L37.644 47.0199L37.645 47.0089L36.6495 46.9141ZM37.3234 45.8584L36.8762 44.964L36.8567 44.9737L36.8377 44.9842L37.3234 45.8584ZM38.4689 45.9482L37.8689 46.7482L39.7674 48.1722L39.4605 45.8189L38.4689 45.9482ZM37.5255 44.9375L37.7952 43.9745L37.7817 43.9708L37.7681 43.9674L37.5255 44.9375ZM36.1105 44.96H35.1105V46.2692L36.3736 45.9247L36.1105 44.96ZM36.1105 44.9375L35.2161 44.4903L35.1105 44.7014V44.9375H36.1105ZM36.1554 44.8477L37.0498 45.2949L37.1554 45.0837V44.8477H36.1554ZM36.1554 44.8252L35.6848 43.9428L35.1554 44.2252V44.8252H36.1554ZM36.8292 44.4658L36.4154 43.5555L36.3866 43.5686L36.3586 43.5835L36.8292 44.4658ZM37.5255 44.2188L37.3294 43.2382L37.319 43.2403L37.3086 43.2426L37.5255 44.2188ZM39.0529 44.3984L38.7141 45.3394L38.7258 45.3434L39.0529 44.3984ZM40.5128 45.3193L39.7858 46.006L40.415 46.6722L41.1335 46.1034L40.5128 45.3193ZM41.591 44.4658L42.2981 45.1729L40.9702 43.6818L41.591 44.4658ZM41.4337 44.8477L40.4414 44.7236L40.4394 44.7403L40.4378 44.7571L41.4337 44.8477ZM41.5236 45.6562L42.4952 45.4199L42.4882 45.3908L42.4793 45.3622L41.5236 45.6562ZM43.298 48.5537L42.5464 49.2133L42.5678 49.2378L42.5909 49.2608L43.298 48.5537ZM44.2413 49.4746L43.577 50.222L43.5874 50.2313L43.5981 50.2403L44.2413 49.4746ZM46.1281 50.665L45.6925 51.5652L45.701 51.5693L45.7096 51.5733L46.1281 50.665ZM52.9562 51.2715L52.8795 50.2744L52.8176 50.2792L52.7567 50.2916L52.9562 51.2715ZM56.9318 49.4971L57.5953 50.2453L57.6015 50.2396L56.9318 49.4971ZM59.1554 45.8584L58.1836 45.6228L58.1834 45.6232L59.1554 45.8584ZM58.5939 41.793L57.7352 42.3054L57.7364 42.3075L58.5939 41.793ZM42.6466 32.3818L41.9574 33.1064L41.9653 33.1139L41.9734 33.1213L42.6466 32.3818ZM40.4904 29.2148L39.5629 29.5891L39.5678 29.6007L40.4904 29.2148ZM39.9288 25.374L40.9233 25.4787L40.9245 25.4675L40.9254 25.4563L39.9288 25.374ZM43.5451 19.4219L43.0431 18.557L43.0081 18.5773L42.975 18.6003L43.5451 19.4219ZM53.2482 17.5576L53.4443 16.577L53.4312 16.5745L53.2482 17.5576ZM56.3478 18.501L55.973 19.4281L55.9848 19.4328L55.9967 19.4373L56.3478 18.501ZM56.9093 18.748L57.3565 17.8536L57.3362 17.8435L57.3154 17.8342L56.9093 18.748ZM57.1339 18.8604L56.6867 19.7548L56.7239 19.7734L56.7625 19.7888L57.1339 18.8604ZM57.3585 18.9502L57.8326 18.0697L57.7826 18.0428L57.7299 18.0217L57.3585 18.9502ZM57.9425 19.1973L58.4322 18.3254L58.3152 18.2597L58.185 18.2271L57.9425 19.1973ZM62.0529 20.9941L61.7964 21.9607L61.8101 21.9643L61.8238 21.9676L62.0529 20.9941ZM63.2658 21.1064V20.1064H63.1035L62.9495 20.1578L63.2658 21.1064ZM63.3781 21.084L64.0852 21.7911L62.6924 20.3561L63.3781 21.084ZM61.8283 22.5439L61.1426 21.8161L60.1938 22.7098L61.3028 23.3947L61.8283 22.5439ZM62.6593 24.9473L63.6422 25.1316L63.6441 25.1211L62.6593 24.9473ZM61.2892 27.2158L60.7787 26.356L60.7689 26.3618L60.7592 26.3678L61.2892 27.2158ZM60.5929 27.5078L60.2988 26.552L60.2946 26.5533L60.5929 27.5078ZM60.2335 27.6201L60.4761 28.5903L60.5042 28.5832L60.5318 28.5746L60.2335 27.6201ZM59.8742 27.71L59.167 28.4171L59.5674 28.8174L60.1167 28.6801L59.8742 27.71ZM59.8517 27.6875L60.5588 26.9804L60.2659 26.6875H59.8517V27.6875ZM59.8068 27.6875L59.3596 28.5819L59.5707 28.6875H59.8068V27.6875ZM59.7618 27.665L59.0547 28.3721L59.1695 28.4869L59.3146 28.5595L59.7618 27.665ZM59.7394 27.6426L59.2754 26.7567L58.0705 27.3879L59.0323 28.3497L59.7394 27.6426ZM60.7951 26.6768L61.6483 27.1982L61.6522 27.1919L61.656 27.1855L60.7951 26.6768ZM60.7951 25.3066L61.6204 24.742L60.1836 22.642L59.8061 25.1583L60.7951 25.3066ZM60.0089 26.1602L59.7664 25.1899L59.7544 25.1931L60.0089 26.1602ZM58.8185 25.8457L58.1114 26.5528L58.1349 26.5764L58.16 26.5983L58.8185 25.8457ZM58.6163 25.6211L59.4163 25.0211L58.7435 24.1239L57.929 24.8948L58.6163 25.6211ZM57.3585 26.8115L56.6514 26.1044L58.0459 27.5378L57.3585 26.8115ZM57.5158 26.3174L58.5117 26.4079L58.5128 26.3941L57.5158 26.3174ZM57.4708 25.3516L56.4893 25.5431L56.4903 25.5477L57.4708 25.3516ZM55.966 23.0605L56.5554 22.2528L56.4298 22.1611L56.2822 22.1119L55.966 23.0605ZM55.8986 23.0381L55.4514 23.9325L55.5149 23.9643L55.5823 23.9868L55.8986 23.0381ZM55.5392 22.8584L55.9864 21.964L55.9698 21.9557L55.953 21.948L55.5392 22.8584ZM54.798 22.5439L55.2118 21.6336L55.1908 21.624L55.1694 21.6155L54.798 22.5439ZM52.462 21.8701L52.2872 22.8547L52.2931 22.8557L52.462 21.8701ZM46.0831 22.9482L45.5596 22.0962L45.5485 22.1032L46.0831 22.9482ZM44.2638 25.8008L43.2682 25.7069L43.2679 25.7102L44.2638 25.8008ZM45.0252 29.9978C45.6017 30.5606 46.5821 31.1988 47.8746 31.9059C49.1907 32.6259 50.9081 33.4581 53.0222 34.3964L53.8335 32.5684C51.7475 31.6425 50.0845 30.8351 48.8344 30.1513C47.5608 29.4545 46.7892 28.9248 46.4223 28.5667L45.0252 29.9978ZM53.0222 34.3964C57.1854 36.2443 59.8743 38.0505 61.246 39.7853L62.8148 38.5448C61.1318 36.4162 58.0708 34.4491 53.8335 32.5684L53.0222 34.3964ZM61.2528 39.7938C61.9811 40.6946 62.457 41.8031 62.6585 43.1535L64.6366 42.8582C64.389 41.1988 63.7867 39.7468 62.808 38.5363L61.2528 39.7938ZM62.6587 43.1542C62.8416 44.3738 62.7787 45.5359 62.4807 46.6285L64.4102 47.1547C64.7861 45.7766 64.8579 44.3332 64.6365 42.8575L62.6587 43.1542ZM62.4667 46.6865C62.0251 48.7942 60.8851 50.5961 58.983 52.1053L60.2262 53.672C62.457 51.902 63.8775 49.7058 64.4242 47.0967L62.4667 46.6865ZM58.9914 52.0988C57.3998 53.3343 55.6308 54.1647 53.6994 54.5593L54.0997 56.5188C56.3461 56.0599 58.3953 55.0934 60.2178 53.6786L58.9914 52.0988ZM53.7082 54.5575C50.3121 55.2197 47.3165 54.9128 44.6348 53.6863L43.803 55.5051C46.9162 56.929 50.3444 57.251 54.0909 56.5206L53.7082 54.5575ZM44.674 53.7053C43.7161 53.2157 42.861 52.6713 42.0984 52.0323L40.814 53.5653C41.7134 54.319 42.7002 54.9425 43.7638 55.4861L44.674 53.7053ZM42.1289 52.0589C41.8827 51.8351 41.6285 51.6018 41.3772 51.3505L39.9629 52.7647C40.2507 53.0524 40.5355 53.3133 40.7835 53.5388L42.1289 52.0589ZM41.3772 51.3505L41.2199 51.1933L39.8057 52.6075L39.9629 52.7647L41.3772 51.3505ZM41.2199 51.1933L41.0852 51.0585L39.671 52.4727L39.8057 52.6075L41.2199 51.1933ZM41.0852 51.0585L40.883 50.8564L39.4688 52.2706L39.671 52.4727L41.0852 51.0585ZM40.9192 50.8945C39.6837 49.5217 38.5455 48.5273 37.5362 48.0363L36.6613 49.8348C37.3141 50.1524 38.2424 50.9099 39.4326 52.2324L40.9192 50.8945ZM37.5126 48.0252C37.2455 47.9038 36.8793 47.7578 36.5129 47.7171L36.292 49.7048C36.3299 49.709 36.4578 49.7427 36.685 49.8459L37.5126 48.0252ZM36.4025 47.7109H36.2228V49.7109H36.4025V47.7109ZM36.2228 47.7109H36.1779V49.7109H36.2228V47.7109ZM35.7307 47.8165L35.6857 47.839L36.5802 49.6278L36.6251 49.6054L35.7307 47.8165ZM36.7508 49.5197L37.6941 48.7785L36.4585 47.2059L35.5151 47.9471L36.7508 49.5197ZM37.7834 47.2851C37.6932 47.1949 37.662 47.1338 37.6512 47.1061C37.6423 47.0834 37.6389 47.0635 37.6427 47.0309L35.6564 46.7972C35.5694 47.5371 35.8575 48.1876 36.3692 48.6993L37.7834 47.2851ZM37.645 47.0089C37.6607 46.8444 37.7104 46.7874 37.809 46.7326L36.8377 44.9842C36.1278 45.3787 35.7282 46.0404 35.654 46.8193L37.645 47.0089ZM37.7706 46.7528C37.809 46.7336 37.8324 46.727 37.8419 46.7249C37.8504 46.7229 37.8485 46.7244 37.8396 46.7237C37.8304 46.7231 37.8248 46.721 37.8256 46.7213C37.8273 46.722 37.8418 46.728 37.8689 46.7482L39.0689 45.1482C38.7592 44.916 38.3949 44.7592 37.9863 44.7291C37.5814 44.6994 37.2055 44.7993 36.8762 44.964L37.7706 46.7528ZM39.4605 45.8189C39.4035 45.3817 39.2314 44.9664 38.9136 44.6258C38.602 44.2919 38.2062 44.0896 37.7952 43.9745L37.2559 45.9005C37.4064 45.9426 37.4486 45.9874 37.4514 45.9904C37.4537 45.9928 37.4559 45.9954 37.4592 46.0028C37.463 46.0114 37.4716 46.0339 37.4773 46.0776L39.4605 45.8189ZM37.7681 43.9674C37.1509 43.8131 36.5051 43.8158 35.8474 43.9952L36.3736 45.9247C36.7041 45.8346 37.0017 45.8373 37.283 45.9076L37.7681 43.9674ZM37.1105 44.96V44.9375H35.1105V44.96H37.1105ZM37.0049 45.3847L37.0274 45.3398L35.2385 44.4454L35.2161 44.4903L37.0049 45.3847ZM37.0274 45.3398L37.0498 45.2949L35.261 44.4004L35.2385 44.4454L37.0274 45.3398ZM37.1554 44.8477V44.8252H35.1554V44.8477H37.1554ZM36.626 45.7076L36.9629 45.5279L36.0217 43.7632L35.6848 43.9428L36.626 45.7076ZM36.9629 45.5279L37.2998 45.3482L36.3586 43.5835L36.0217 43.7632L36.9629 45.5279ZM37.243 45.3762C37.4542 45.2802 37.6321 45.2195 37.7425 45.1949L37.3086 43.2426C37.0147 43.3079 36.6984 43.4268 36.4154 43.5555L37.243 45.3762ZM37.7216 45.1993C37.9348 45.1567 38.2588 45.1754 38.7141 45.3393L39.3916 43.4576C38.7239 43.2172 38.0147 43.1011 37.3294 43.2382L37.7216 45.1993ZM38.7258 45.3434C39.1706 45.4974 39.5236 45.7284 39.7858 46.006L41.2398 44.6327C40.7383 44.1017 40.1031 43.7038 39.38 43.4535L38.7258 45.3434ZM41.1335 46.1034L42.2117 45.2499L40.9702 43.6818L39.8921 44.5353L41.1335 46.1034ZM40.8838 43.7587C40.6175 44.025 40.4832 44.3899 40.4414 44.7236L42.426 44.9717C42.426 44.9721 42.4243 44.9864 42.4126 45.0134C42.4066 45.0271 42.3966 45.0473 42.3804 45.0724C42.3647 45.0965 42.3386 45.1324 42.2981 45.1729L40.8838 43.7587ZM40.4378 44.7571C40.4036 45.1336 40.4396 45.5338 40.5678 45.9503L42.4793 45.3622C42.4278 45.1947 42.4189 45.0558 42.4296 44.9382L40.4378 44.7571ZM40.5519 45.8926C40.8123 46.9631 41.5498 48.0777 42.5464 49.2133L44.0496 47.8941C43.1145 46.8285 42.6391 46.0115 42.4952 45.4199L40.5519 45.8926ZM42.5909 49.2608C42.6276 49.2975 42.667 49.3406 42.7308 49.4105C42.7891 49.4744 42.8649 49.5573 42.9502 49.6427L44.3645 48.2284C44.3151 48.1791 44.2673 48.1272 44.2077 48.0619C44.1536 48.0026 44.0807 47.9222 44.0051 47.8466L42.5909 49.2608ZM42.9502 49.6427C43.1545 49.8469 43.3795 50.0465 43.577 50.222L44.9057 48.7272C44.6989 48.5433 44.5196 48.3836 44.3645 48.2284L42.9502 49.6427ZM43.5981 50.2403C44.2385 50.7782 44.9424 51.2022 45.6925 51.5652L46.5636 49.7649C45.9212 49.454 45.3672 49.1144 44.8845 48.7089L43.5981 50.2403ZM45.7096 51.5733C47.9348 52.5984 50.4479 52.8025 53.1556 52.2514L52.7567 50.2916C50.3883 50.7736 48.3194 50.5735 46.5465 49.7568L45.7096 51.5733ZM53.0329 52.2685C54.7389 52.1373 56.2644 51.4254 57.5953 50.2453L56.2683 48.7489C55.2182 49.68 54.0934 50.1811 52.8795 50.2744L53.0329 52.2685ZM57.6015 50.2396C58.8845 49.0824 59.7394 47.697 60.1274 46.0936L58.1834 45.6232C57.8976 46.8049 57.27 47.8453 56.262 48.7545L57.6015 50.2396ZM60.1273 46.094C60.5433 44.3779 60.3388 42.7576 59.4514 41.2785L57.7364 42.3075C58.3314 43.2991 58.4863 44.374 58.1836 45.6228L60.1273 46.094ZM59.4526 41.2805C58.9147 40.3792 57.9218 39.5355 56.6341 38.7235C55.324 37.8973 53.6074 37.042 51.5029 36.1547L50.7259 37.9976C52.7766 38.8623 54.3843 39.6691 55.5673 40.4152C56.7728 41.1754 57.442 41.8141 57.7352 42.3054L59.4526 41.2805ZM51.5029 36.1547C47.3618 34.4087 44.6904 32.8902 43.3198 31.6424L41.9734 33.1213C43.6126 34.6137 46.5565 36.2397 50.7259 37.9976L51.5029 36.1547ZM43.3358 31.6573C42.5207 30.8819 41.879 29.9435 41.4129 28.829L39.5678 29.6007C40.1349 30.9569 40.9307 32.1298 41.9574 33.1064L43.3358 31.6573ZM41.4177 28.8407C40.96 27.7064 40.8063 26.5903 40.9233 25.4787L38.9343 25.2693C38.7818 26.7183 38.9875 28.1627 39.563 29.589L41.4177 28.8407ZM40.9254 25.4563C41.1002 23.3399 42.1299 21.621 44.1151 20.2435L42.975 18.6003C40.5578 20.2775 39.1618 22.5117 38.9322 25.2917L40.9254 25.4563ZM44.047 20.2867C47.0745 18.5295 50.0677 17.9826 53.0651 18.5407L53.4312 16.5745C49.915 15.9198 46.4394 16.5857 43.0431 18.557L44.047 20.2867ZM53.0521 18.5382C53.9957 18.7269 54.9692 19.0223 55.973 19.4281L56.7226 17.5739C55.6151 17.1262 54.5221 16.7926 53.4443 16.577L53.0521 18.5382ZM55.9967 19.4373C56.1407 19.4913 56.2429 19.5462 56.5032 19.6619L57.3154 17.8342C57.1715 17.7702 56.9142 17.6454 56.6989 17.5646L55.9967 19.4373ZM56.4621 19.6425L56.6867 19.7548L57.5811 17.9659L57.3565 17.8536L56.4621 19.6425ZM56.7625 19.7888L56.9871 19.8787L57.7299 18.0217L57.5053 17.9319L56.7625 19.7888ZM56.8844 19.8307C57.2359 20.0199 57.5158 20.1214 57.7 20.1674L58.185 18.2271C58.1896 18.2283 58.0651 18.1949 57.8326 18.0697L56.8844 19.8307ZM57.4528 20.0692C59.1347 21.0138 60.5859 21.6395 61.7964 21.9607L62.3093 20.0276C61.3187 19.7648 60.0296 19.2225 58.4322 18.3254L57.4528 20.0692ZM61.8238 21.9676C62.25 22.0678 62.6683 22.1289 63.0187 22.1289V20.1289C62.8749 20.1289 62.6194 20.1001 62.2819 20.0207L61.8238 21.9676ZM63.0187 22.1289C63.0843 22.1289 63.3297 22.1392 63.582 22.0551L62.9495 20.1578C62.9813 20.1472 63.0111 20.14 63.0374 20.1352C63.0625 20.1307 63.0807 20.1291 63.0878 20.1286C63.094 20.1282 63.0934 20.1285 63.08 20.1287C63.0659 20.1289 63.0487 20.1289 63.0187 20.1289V22.1289ZM63.2658 22.1064C63.2777 22.1064 63.3082 22.1065 63.338 22.1057C63.3671 22.1048 63.429 22.1024 63.5032 22.09C63.7092 22.0557 63.9153 21.961 64.0852 21.7911L62.671 20.3769C62.7273 20.3206 62.8072 20.2556 62.9133 20.2025C63.017 20.1507 63.1105 20.1279 63.1744 20.1172C63.2316 20.1077 63.2739 20.1067 63.2792 20.1065C63.2851 20.1064 63.2875 20.1064 63.2658 20.1064V22.1064ZM62.6924 20.3561L61.1426 21.8161L62.5139 23.2718L64.0638 21.8119L62.6924 20.3561ZM61.3028 23.3947C61.503 23.5184 61.6037 23.6542 61.6607 23.8191C61.7253 24.0063 61.7571 24.3055 61.6745 24.7735L63.6441 25.1211C63.7637 24.4435 63.7618 23.7769 63.5513 23.1667C63.333 22.5343 62.9172 22.0412 62.3537 21.6931L61.3028 23.3947ZM61.6764 24.763C61.507 25.6664 61.1692 26.1241 60.7787 26.356L61.7997 28.0757C62.8467 27.4541 63.4073 26.3843 63.6422 25.1316L61.6764 24.763ZM60.7592 26.3678C60.6881 26.4123 60.5596 26.4718 60.2988 26.552L60.887 28.4636C61.2102 28.3642 61.5309 28.244 61.8192 28.0638L60.7592 26.3678ZM60.2946 26.5533L59.9353 26.6656L60.5318 28.5746L60.8912 28.4623L60.2946 26.5533ZM59.991 26.65L59.6316 26.7398L60.1167 28.6801L60.4761 28.5903L59.991 26.65ZM60.5813 27.0029L60.5588 26.9804L59.1446 28.3946L59.167 28.4171L60.5813 27.0029ZM59.8517 26.6875H59.8068V28.6875H59.8517V26.6875ZM60.254 26.7931L60.2091 26.7706L59.3146 28.5595L59.3596 28.5819L60.254 26.7931ZM60.469 26.9579L60.4465 26.9355L59.0323 28.3497L59.0547 28.3721L60.469 26.9579ZM60.2034 28.5284C60.8242 28.2032 61.3005 27.7674 61.6483 27.1982L59.9418 26.1553C59.7955 26.3947 59.5979 26.5878 59.2754 26.7567L60.2034 28.5284ZM61.656 27.1855C61.8688 26.8253 62.014 26.415 62.014 25.9664C62.014 25.5095 61.8632 25.0969 61.6204 24.742L59.9697 25.8713C59.9964 25.9103 60.0065 25.9353 60.0103 25.9466C60.0137 25.9568 60.014 25.962 60.014 25.9664C60.014 25.9727 60.0133 26.0341 59.9341 26.168L61.656 27.1855ZM59.8061 25.1583C59.8038 25.174 59.8011 25.1849 59.7992 25.1918C59.7982 25.1952 59.7974 25.1976 59.7968 25.1992C59.7962 25.2008 59.7959 25.2015 59.7959 25.2015C59.7959 25.2015 59.796 25.2013 59.7961 25.201C59.7963 25.2007 59.7965 25.2002 59.7968 25.1997C59.7975 25.1985 59.7984 25.1969 59.7997 25.195C59.8023 25.191 59.8057 25.1865 59.8098 25.1821C59.8188 25.1723 59.8251 25.169 59.8227 25.1704C59.8193 25.1722 59.8027 25.1809 59.7664 25.19L60.2515 27.1303C60.6309 27.0354 60.9942 26.8481 61.2805 26.5374C61.568 26.2255 61.7253 25.8462 61.784 25.455L59.8061 25.1583ZM59.7544 25.1931C59.7019 25.2069 59.6711 25.2034 59.6469 25.197C59.6186 25.1894 59.5609 25.1666 59.477 25.0931L58.16 26.5983C58.7333 27.0999 59.472 27.3355 60.2634 27.1272L59.7544 25.1931ZM59.5256 25.1386C59.456 25.069 59.4359 25.0472 59.4163 25.0211L57.8163 26.2211C57.9315 26.3747 58.0462 26.4876 58.1114 26.5528L59.5256 25.1386ZM57.929 24.8948L56.6711 26.0852L58.0459 27.5378L59.3037 26.3474L57.929 24.8948ZM58.0656 27.5186C58.2615 27.3227 58.3561 27.0878 58.4027 26.9481C58.4587 26.7799 58.4945 26.596 58.5116 26.4079L56.5199 26.2268C56.5173 26.2549 56.5138 26.2771 56.5106 26.2932C56.5073 26.3097 56.5049 26.3169 56.5053 26.3156C56.5053 26.3156 56.5109 26.2982 56.5266 26.269C56.5347 26.2538 56.5474 26.2319 56.5659 26.2056C56.584 26.1798 56.6119 26.144 56.6514 26.1044L58.0656 27.5186ZM58.5128 26.3941C58.5394 26.0487 58.5429 25.613 58.4514 25.1554L56.4903 25.5477C56.5335 25.7639 56.5371 26.002 56.5187 26.2407L58.5128 26.3941ZM58.4523 25.1601C58.2209 23.9738 57.575 22.9968 56.5554 22.2528L55.3765 23.8683C56.019 24.3372 56.3614 24.8875 56.4893 25.5431L58.4523 25.1601ZM56.2822 22.1119L56.2148 22.0894L55.5823 23.9868L55.6497 24.0092L56.2822 22.1119ZM56.3458 22.1437L56.2559 22.0987L55.3615 23.8876L55.4514 23.9325L56.3458 22.1437ZM56.2559 22.0987L55.9864 21.964L55.092 23.7528L55.3615 23.8876L56.2559 22.0987ZM55.953 21.948C55.8092 21.8827 55.668 21.825 55.5472 21.7756C55.4209 21.724 55.315 21.6805 55.2118 21.6336L54.3842 23.4543C54.528 23.5197 54.6692 23.5773 54.79 23.6267C54.9162 23.6784 55.0221 23.7218 55.1254 23.7688L55.953 21.948ZM55.1694 21.6155C54.3269 21.2785 53.4954 21.0327 52.631 20.8845L52.2931 22.8557C53.001 22.9771 53.6968 23.1805 54.4266 23.4724L55.1694 21.6155ZM52.6369 20.8855C50.0211 20.421 47.6561 20.808 45.5596 22.0962L46.6067 23.8003C48.2387 22.7974 50.0964 22.4657 52.2872 22.8547L52.6369 20.8855ZM45.5485 22.1032C44.2061 22.9524 43.4117 24.1855 43.2682 25.7069L45.2594 25.8947C45.3405 25.0352 45.759 24.3366 46.6178 23.7933L45.5485 22.1032ZM43.2679 25.7102C43.1231 27.3027 43.7542 28.7527 45.024 29.9966L46.4235 28.5679C45.4922 27.6555 45.1799 26.7696 45.2597 25.8913L43.2679 25.7102Z" fill="#998100"/>
<path d="M27.8139 18.7705C31.1157 19.4668 33.8559 20.8594 36.0346 22.9033C39.4711 26.1602 41.1782 30.7422 41.1782 36.6719V36.8291V37.1436C41.1557 37.4805 41.1332 37.8174 41.1108 38.1992C41.0209 39.3447 40.8412 40.4902 40.5717 41.6357C39.7407 45.2295 38.2133 48.1494 36.0121 50.3955C32.9799 53.4951 28.2856 55.0225 21.9516 54.9775C21.2778 54.9551 20.559 55 19.7953 55.1123C18.9194 55.2246 18.0883 55.3818 17.3471 55.6064C15.4155 56.2129 14.2475 57.0889 13.8207 58.2568V58.2793C13.4838 56.1904 13.9555 54.4834 15.2358 53.1582C16.3588 52.0127 17.8862 51.3164 19.8178 51.0918L21.5024 50.9346L23.2543 50.8223C24.7143 50.71 25.9047 50.5752 26.8032 50.418C29.5659 49.9463 31.6547 49.0029 33.0698 47.5654C34.7768 45.8359 35.9672 43.5225 36.6186 40.625C36.8207 39.7041 36.978 38.7832 37.0453 37.8623C37.0678 37.5703 37.0678 37.3008 37.0903 37.0312V36.8066V36.7168C37.0903 31.9326 35.81 28.3389 33.2494 25.9131C31.6323 24.3633 29.5434 23.3076 26.9828 22.7461C26.1742 22.5889 25.3657 22.4766 24.5571 22.4316C24.31 22.4092 24.0854 22.4092 23.8608 22.4092H23.6586H23.5912H14.2026L14.1801 22.6562V49.7217C14.1801 52.0352 12.9223 53.6074 10.4291 54.4834C9.19378 54.9102 7.93597 55.1123 6.67816 55.0898C7.19476 54.8428 7.73382 54.416 8.25042 53.8545C9.30609 52.709 9.82269 51.3164 9.82269 49.7217V22.6562C9.82269 21.7803 9.66546 21.0166 9.32855 20.3652C9.08148 19.8486 8.7221 19.3994 8.25042 19.04C7.73382 18.6357 7.19476 18.3887 6.67816 18.3213H17.3471H17.3022H23.4789C24.7143 18.2539 26.1518 18.4111 27.8139 18.7705Z" fill="black"/>
<path d="M27.8139 18.7705L27.6026 19.7479L27.6076 19.749L27.8139 18.7705ZM36.0346 22.9033L36.7225 22.1775L36.7188 22.174L36.0346 22.9033ZM41.1782 37.1436L42.1759 37.2101L42.1782 37.1768V37.1436H41.1782ZM41.1108 38.1992L42.1077 38.2774L42.1085 38.2677L42.109 38.2579L41.1108 38.1992ZM40.5717 41.6357L39.5983 41.4067L39.5974 41.4104L40.5717 41.6357ZM36.0121 50.3955L35.2979 49.6956L35.2973 49.6962L36.0121 50.3955ZM21.9516 54.9775L21.9183 55.977L21.9314 55.9774L21.9445 55.9775L21.9516 54.9775ZM19.7953 55.1123L19.9225 56.1042L19.9317 56.103L19.9408 56.1017L19.7953 55.1123ZM17.3471 55.6064L17.0571 54.6494L17.0476 54.6524L17.3471 55.6064ZM13.8207 58.2568L12.8815 57.9136L12.8207 58.0799V58.2568H13.8207ZM13.8207 58.2793L12.8335 58.4385L14.8207 58.2793H13.8207ZM15.2358 53.1582L14.5217 52.4581L14.5166 52.4634L15.2358 53.1582ZM19.8178 51.0918L19.7249 50.0961L19.7136 50.0972L19.7023 50.0985L19.8178 51.0918ZM21.5024 50.9346L21.4384 49.9366L21.4239 49.9375L21.4094 49.9389L21.5024 50.9346ZM23.2543 50.8223L23.3183 51.8203L23.331 51.8193L23.2543 50.8223ZM26.8032 50.418L26.6349 49.4322L26.6308 49.4329L26.8032 50.418ZM33.0698 47.5654L32.358 46.863L32.3571 46.8639L33.0698 47.5654ZM36.6186 40.625L37.5942 40.8443L37.5953 40.8394L36.6186 40.625ZM37.0453 37.8623L36.0483 37.7856L36.048 37.7893L37.0453 37.8623ZM37.0903 37.0312L38.0868 37.1143L38.0903 37.0728V37.0312H37.0903ZM33.2494 25.9131L32.5575 26.6351L32.5617 26.639L33.2494 25.9131ZM26.9828 22.7461L27.1971 21.7693L27.1854 21.7668L27.1737 21.7645L26.9828 22.7461ZM24.5571 22.4316L24.4665 23.4275L24.484 23.4291L24.5016 23.4301L24.5571 22.4316ZM14.2026 22.4092V21.4092H13.2894L13.2067 22.3186L14.2026 22.4092ZM14.1801 22.6562L13.1842 22.5657L13.1801 22.6109V22.6562H14.1801ZM10.4291 54.4834L10.7557 55.4286L10.7606 55.4269L10.4291 54.4834ZM6.67816 55.0898L6.2467 54.1877L6.6603 56.0897L6.67816 55.0898ZM8.25042 53.8545L7.51507 53.1768L7.51449 53.1774L8.25042 53.8545ZM9.32855 20.3652L8.42641 20.7967L8.43315 20.8108L8.44033 20.8247L9.32855 20.3652ZM8.25042 19.04L7.63406 19.8276L7.64438 19.8355L8.25042 19.04ZM6.67816 18.3213V17.3213L6.54882 19.3129L6.67816 18.3213ZM23.4789 18.3213V19.3213H23.5062L23.5334 19.3198L23.4789 18.3213ZM27.6076 19.749C30.7493 20.4115 33.3187 21.7266 35.3504 23.6326L36.7188 22.174C34.3931 19.9921 31.482 18.5221 28.0202 17.792L27.6076 19.749ZM35.3467 23.6291C38.5355 26.6512 40.1782 30.9419 40.1782 36.6719H42.1782C42.1782 30.5425 40.4068 25.6691 36.7225 22.1775L35.3467 23.6291ZM40.1782 36.6719V36.8291H42.1782V36.6719H40.1782ZM40.1782 36.8291V37.1436H42.1782V36.8291H40.1782ZM40.1804 37.077C40.1579 37.4137 40.1352 37.7542 40.1125 38.1405L42.109 38.2579C42.1312 37.8805 42.1535 37.5473 42.1759 37.2101L40.1804 37.077ZM40.1138 38.121C40.0281 39.2145 39.8564 40.3096 39.5983 41.4067L41.5451 41.8648C41.826 40.6709 42.0138 39.4749 42.1077 38.2774L40.1138 38.121ZM39.5974 41.4104C38.801 44.8543 37.351 47.6006 35.2979 49.6956L36.7264 51.0954C39.0757 48.6982 40.6803 45.6047 41.546 41.861L39.5974 41.4104ZM35.2973 49.6962C32.528 52.527 28.1474 54.0215 21.9587 53.9776L21.9445 55.9775C28.4237 56.0235 33.4318 54.4632 36.727 51.0948L35.2973 49.6962ZM21.9849 53.9781C21.2434 53.9534 20.4644 54.0032 19.6498 54.1229L19.9408 56.1017C20.6536 55.9968 21.3121 55.9568 21.9183 55.977L21.9849 53.9781ZM19.6682 54.1204C18.7584 54.2371 17.8688 54.4035 17.0571 54.6494L17.6371 56.5635C18.3078 56.3602 19.0803 56.2122 19.9225 56.1042L19.6682 54.1204ZM17.0476 54.6524C15.0064 55.2932 13.4678 56.3089 12.8815 57.9136L14.76 58.6C15.0272 57.8688 15.8245 57.1326 17.6466 56.5605L17.0476 54.6524ZM12.8207 58.2568V58.2793H14.8207V58.2568H12.8207ZM14.808 58.1201C14.5127 56.2896 14.9281 54.9159 15.955 53.853L14.5166 52.4634C12.9829 54.0509 12.4549 56.0912 12.8335 58.4385L14.808 58.1201ZM15.9498 53.8583C16.8836 52.9059 18.1836 52.2886 19.9333 52.0851L19.7023 50.0985C17.5887 50.3443 15.8341 51.1195 14.5217 52.4581L15.9498 53.8583ZM19.9107 52.0875L21.5953 51.9302L21.4094 49.9389L19.7249 50.0961L19.9107 52.0875ZM21.5663 51.9325L23.3183 51.8202L23.1904 49.8243L21.4384 49.9366L21.5663 51.9325ZM23.331 51.8193C24.8055 51.7059 26.0318 51.5681 26.9755 51.403L26.6308 49.4329C25.7776 49.5822 24.6231 49.714 23.1776 49.8252L23.331 51.8193ZM26.9715 51.4037C29.8589 50.9107 32.171 49.9039 33.7824 48.2669L32.3571 46.8639C31.1384 48.1019 29.2728 48.9819 26.6349 49.4322L26.9715 51.4037ZM33.7815 48.2679C35.6447 46.3801 36.9103 43.8866 37.5942 40.8443L35.6429 40.4057C35.0241 43.1583 33.9088 45.2918 32.358 46.863L33.7815 48.2679ZM37.5953 40.8394C37.8038 39.8899 37.9707 38.9191 38.0427 37.9353L36.048 37.7893C35.9852 38.6473 35.8377 39.5183 35.6418 40.4106L37.5953 40.8394ZM38.0424 37.939C38.0552 37.772 38.0615 37.6136 38.067 37.4791C38.0727 37.3388 38.0776 37.2247 38.0868 37.1143L36.0937 36.9482C36.0805 37.1073 36.0741 37.2628 36.0686 37.3976C36.0629 37.5383 36.0579 37.6606 36.0483 37.7856L38.0424 37.939ZM38.0903 37.0312V36.8066H36.0903V37.0312H38.0903ZM38.0903 36.8066V36.7168H36.0903V36.8066H38.0903ZM38.0903 36.7168C38.0903 31.7585 36.7599 27.8613 33.9372 25.1871L32.5617 26.639C34.8601 28.8165 36.0903 32.1067 36.0903 36.7168H38.0903ZM33.9414 25.1911C32.1702 23.4937 29.9062 22.3634 27.1971 21.7693L26.7686 23.7229C29.1806 24.2518 31.0943 25.2328 32.5575 26.6351L33.9414 25.1911ZM27.1737 21.7645C26.3307 21.6006 25.4759 21.4811 24.6125 21.4332L24.5016 23.4301C25.2554 23.472 26.0178 23.5772 26.792 23.7277L27.1737 21.7645ZM24.6476 21.4357C24.349 21.4086 24.0812 21.4092 23.8608 21.4092V23.4092C24.0896 23.4092 24.271 23.4098 24.4665 23.4275L24.6476 21.4357ZM23.8608 21.4092H23.6586V23.4092H23.8608V21.4092ZM23.6586 21.4092H23.5912V23.4092H23.6586V21.4092ZM23.5912 21.4092H14.2026V23.4092H23.5912V21.4092ZM13.2067 22.3186L13.1842 22.5657L15.176 22.7468L15.1985 22.4997L13.2067 22.3186ZM13.1801 22.6562V49.7217H15.1801V22.6562H13.1801ZM13.1801 49.7217C13.1801 50.6862 12.9225 51.4303 12.4552 52.0213C11.9786 52.624 11.2219 53.1449 10.0976 53.5399L10.7606 55.4269C12.1295 54.9459 13.2483 54.2427 14.0239 53.2619C14.8088 52.2694 15.1801 51.0707 15.1801 49.7217H13.1801ZM10.1026 53.5382C8.97452 53.9279 7.83313 54.1103 6.69601 54.09L6.6603 56.0897C8.03881 56.1143 9.41304 55.8924 10.7557 55.4286L10.1026 53.5382ZM7.10961 55.992C7.77534 55.6736 8.4136 55.1541 8.98635 54.5315L7.51449 53.1774C7.05404 53.6779 6.61417 54.012 6.2467 54.1877L7.10961 55.992ZM8.98578 54.5322C10.222 53.1907 10.8227 51.5518 10.8227 49.7217H8.82269C8.82269 51.0811 8.39017 52.2272 7.51507 53.1768L8.98578 54.5322ZM10.8227 49.7217V22.6562H8.82269V49.7217H10.8227ZM10.8227 22.6562C10.8227 21.6619 10.6441 20.732 10.2168 19.9058L8.44033 20.8247C8.68683 21.3012 8.82269 21.8986 8.82269 22.6562H10.8227ZM10.2307 19.9338C9.91638 19.2766 9.45651 18.7018 8.85646 18.2446L7.64438 19.8355C7.98769 20.097 8.24657 20.4207 8.42641 20.7967L10.2307 19.9338ZM8.86673 18.2525C8.24608 17.7668 7.54325 17.4257 6.8075 17.3297L6.54882 19.3129C6.84626 19.3517 7.22156 19.5047 7.63411 19.8275L8.86673 18.2525ZM6.67816 19.3213H17.3471V17.3213H6.67816V19.3213ZM17.3471 17.3213H17.3022V19.3213H17.3471V17.3213ZM17.3022 19.3213H23.4789V17.3213H17.3022V19.3213ZM23.5334 19.3198C24.6487 19.259 25.9911 19.3995 27.6026 19.7479L28.0252 17.7931C26.3125 17.4228 24.7799 17.2488 23.4245 17.3228L23.5334 19.3198Z" fill="#998100"/>
</g>
<defs>
<clipPath id="clip0_2_23">
<rect width="72" height="72" fill="white"/>
</clipPath>
</defs>
</svg>
